<?xml version="1.0" standalone="no"?><!DOCTYPE svg PUBLIC "-//W3C//DTD SVG 1.1//EN" "http://www.w3.org/Graphics/SVG/1.1/DTD/svg11.dtd"><svg t="1600240814884" class="icon" viewBox="0 0 1024 1024" version="1.1" xmlns="http://www.w3.org/2000/svg" p-id="6182" xmlns:xlink="http://www.w3.org/1999/xlink" width="200" height="200"><defs><style type="text/css"></style></defs><path d="M1007.315862 166.87669L856.478897 16.057379c-21.044966-21.044966-54.360276-21.044966-73.65738 0L563.614897 235.272828c-21.044966 21.044966-21.044966 54.360276 0 73.648551l59.630344 59.630345-29.810758 29.810759-19.297104-19.288276c-28.054069-28.062897-64.882759-40.342069-99.954758-40.342069-47.351172-38.576552-108.738207-43.837793-143.80138-8.765793-35.080828 35.080828-29.819586 96.459034 8.765793 143.801379 0 36.837517 12.270345 71.909517 40.333242 99.972414l19.288276 19.288276-29.810759 29.810758-59.630345-59.621517c-21.044966-21.044966-54.360276-21.044966-73.657379 0L16.454621 782.433103c-21.044966 21.044966-21.044966 54.360276 0 73.648552l150.81931 150.828138c21.044966 21.044966 54.369103 21.044966 73.657379 0L460.146759 787.685517c21.044966-21.044966 21.044966-54.369103 0-73.657379l-50.846897-50.855724 29.801931-29.819586 66.648276 66.648275c17.531586-40.342069 45.594483-80.67531 80.666483-115.74731 35.072-35.080828 75.414069-63.134897 115.74731-80.67531l-66.648276-66.648276 29.819586-29.801931 50.855725 50.846896c21.044966 21.053793 54.369103 21.053793 73.657379 0l219.215448-219.20662c19.288276-19.288276 19.288276-52.612414-1.75669-71.90069z" fill="#BFC4CB" p-id="6183"></path><path d="M956.45131 545.677241a53.28331 53.28331 0 0 0-12.270344-8.765793s-1.765517 0-1.765518-1.756689c-3.504552-1.75669-5.252414-3.504552-8.756965-5.261242h-1.765517c-85.927724-47.351172-219.206621-14.035862-317.413518 84.179862-99.963586 99.963586-131.531034 231.485793-84.179862 317.422345 1.75669 3.504552 3.504552 5.261241 5.261242 8.765793 0 0 0 1.75669 1.756689 1.75669 3.504552 5.261241 7.009103 8.765793 8.765793 12.270345 36.82869 24.558345 119.251862-7.009103 206.936276-77.153104l-43.837793-35.080827c-52.612414 42.089931-94.702345 64.882759-106.981517 54.369103C586.416552 880.64 639.028966 801.721379 719.695448 721.037241c80.67531-80.666483 159.593931-133.278897 175.377655-117.495172 10.522483 10.522483-8.765793 47.351172-45.594482 94.702345l35.072 43.837793c66.639448-84.179862 96.450207-161.341793 71.900689-196.413793z" fill="#BFC4CB" p-id="6184"></path><path d="M746.001655 780.676414c-14.027034-10.522483-14.027034-29.810759-1.747862-42.089931l5.261241-5.261242c12.270345-12.270345 31.567448-10.522483 42.089932 1.75669l47.351172 57.873655c10.522483 14.027034 10.522483 35.072-1.75669 47.351173l15.783724-15.792552c-12.270345 12.279172-33.324138 14.035862-47.351172 1.765517l-59.630345-45.60331z" fill="#BFC4CB" p-id="6185"></path><path d="M859.506759 804.31669c-22.333793 0-40.915862 18.590897-42.160552 39.688827 0 22.324966 17.363862 39.68 42.160552 39.68 22.324966 0 42.160552-17.355034 42.160551-39.68-1.235862-23.569655-19.835586-39.688828-42.160551-39.688827" fill="#BFC4CB" p-id="6186"></path><path d="M963.681103 804.31669c0 37.208276-14.892138 71.918345-43.405241 97.959724-27.294897 27.294897-63.240828 40.933517-102.94731 40.933517v57.05269c114.096552 0 204.623448-88.037517 205.868138-195.945931h-59.515587" fill="#BFC4CB" p-id="6187"></path></svg>