<?xml version="1.0" standalone="no"?><!DOCTYPE svg PUBLIC "-//W3C//DTD SVG 1.1//EN" "http://www.w3.org/Graphics/SVG/1.1/DTD/svg11.dtd"><svg t="1600683914609" class="icon" viewBox="0 0 1076 1024" version="1.1" xmlns="http://www.w3.org/2000/svg" p-id="6303" xmlns:xlink="http://www.w3.org/1999/xlink" width="210.15625" height="200"><defs><style type="text/css"></style></defs><path d="M446.221008 804.144816L255.475382 613.399191l359.053755-359.053755 190.745625 190.799433-359.053754 358.999947zM288.351427 613.399191l157.869581 157.869581 326.070096-326.123903-157.761967-157.869581L288.351427 613.399191z m527.684725-179.069518l-190.745626-190.745626 50.04046-50.04046 190.799433 190.745625-50.040461 50.040461z m-157.815775-190.745626l157.815775 157.815774 17.164415-17.110609-157.869581-157.869581-17.110609 17.164416z" p-id="6304"></path><path d="M692.71063 456.551942l16.464926 16.464925-228.73333 228.73333-16.464926-16.411119 228.73333-228.787136z m144.471652 202.206505l16.464925 16.464925-168.308129 168.308129-16.464925-16.464925 168.308129-168.308129z m88.028164 90.772319l16.464926 16.464925-168.254322 168.308129-16.464926-16.464926 168.254322-168.308128z m-153.726446-307.452893l-153.941674-153.887867 42.346067-42.399874 153.941674 153.887867-42.346067 42.399874z m-121.06563-153.887867l121.06563 121.011823 9.416215-9.470023-121.011822-121.06563-9.470023 9.52383zM401.937891 811.677789l-153.887867-153.941674 42.346067-42.399874 153.887867 153.941674-42.346067 42.399874zM280.872261 657.736115l121.06563 121.06563 9.416215-9.52383-121.065629-121.011823-9.416216 9.470023z" p-id="6305"></path><path d="M363.950187 824.053387l-128.383375-128.383375 42.399874-42.346067 128.329567 128.329568-42.346066 42.399874zM268.496663 695.670012l95.453524 95.453523 9.416215-9.470022-95.399716-95.399717-9.470023 9.416216z m524.348695-445.360097l16.464925 16.464926-33.844569 33.790762-16.411119-16.411118 33.790763-33.84457z" p-id="6306"></path><path d="M299.758499 743.396774l16.464926 16.464925-33.790763 33.790763-16.464925-16.464926 33.790762-33.790762z m-86.413956 86.413956l16.464926 16.464926-15.765436 15.765435-16.464925-16.464926 15.765435-15.765435z m599.947454-556.1486a27.118701 27.118701 0 0 1-27.333929-27.280122 27.118701 27.118701 0 0 1 27.280122-27.333929 27.118701 27.118701 0 0 1 27.333929 27.333929 27.118701 27.118701 0 0 1-27.333929 27.280122z m0-42.937943a15.604015 15.604015 0 0 0-15.711628 15.604014 15.604015 15.604015 0 0 0 15.657821 15.711629 15.604015 15.604015 0 0 0 15.711629-15.657822 15.604015 15.604015 0 0 0-15.711629-15.657821z" p-id="6307"></path><path d="M276.675319 901.373969l-118.429089-118.42909 4.304556-4.519783 0.807104-0.860911a83.400767 83.400767 0 0 1 59.349062-24.535968c22.437497 0 43.476013 8.716725 59.349062 24.535968 15.819242 15.873049 24.589775 36.911565 24.589774 59.349062a83.400767 83.400767 0 0 1-25.450685 60.156166l-4.519784 4.304556zM174.657349 782.891072l102.071777 102.071778c11.837528-13.236509 18.294362-30.13189 18.294362-48.049603 0-19.316694-7.532973-37.449635-21.199937-51.116599a71.778467 71.778467 0 0 0-51.116599-21.14613c-17.863906 0-34.759287 6.456834-48.049603 18.294361z m458.596605-182.244128l54.614051 54.614051-16.464926 16.464926-54.614051-54.614051 16.464926-16.464926z m-237.396248-231.36987l54.614051 54.614051-16.464926 16.464926-54.614051-54.614051 16.464926-16.464926z" p-id="6308"></path><path d="M849.396458 1024l-273.339288-273.339289 184.719247-184.773054 273.339289 273.339289-184.719248 184.773054z m-240.463244-273.339289l240.463244 240.409438 151.789397-151.789397-240.409438-240.463244-151.843203 151.843203z" p-id="6309"></path><path d="M716.385687 626.743314l256.928169 256.874362-16.464925 16.464926-256.874363-256.92817 16.411119-16.411118z m-52.569387 64.568335l256.874363 256.92817-16.464926 16.464926-256.874363-256.92817 16.464926-16.464926zM293.624507 125.047344l16.464926 16.464925-168.308129 168.308129-16.464925-16.464925 168.308128-168.308129zM387.67905 209.847092l16.464926 16.464925-168.308129 168.308129-16.464926-16.464926 168.308129-168.308128z" p-id="6310"></path><path d="M305.838684 490.288897l-273.339288-273.339288L217.164836 32.230361l273.339289 273.339289-184.719248 184.719247z m-240.463244-273.339288L305.838684 457.359046 457.628081 305.623456 217.218643 65.106405 65.37544 216.949609z" p-id="6311"></path><path d="M172.827912 93.032211l256.92817 256.874362-16.464925 16.464926-256.92817-256.874363 16.464925-16.464925z m-52.569386 64.568335l256.874362 256.92817-16.464925 16.464926L103.847407 174.065472l16.464926-16.464926z" p-id="6312"></path></svg>