<?xml version="1.0" standalone="no"?><!DOCTYPE svg PUBLIC "-//W3C//DTD SVG 1.1//EN" "http://www.w3.org/Graphics/SVG/1.1/DTD/svg11.dtd"><svg t="1599194261794" class="icon" viewBox="0 0 1051 1024" version="1.1" xmlns="http://www.w3.org/2000/svg" p-id="1620" xmlns:xlink="http://www.w3.org/1999/xlink" width="205.2734375" height="200"><defs><style type="text/css"></style></defs><path d="M838.11971383 211.39840948L729.81700619 103.0957018a36.55202866 36.55202866 0 0 0-53.06911471 1e-8L518.8977881 260.54025519a36.55202866 36.55202866 0 0 0 0 53.06911468l42.91491511 42.91414261-21.38986589 21.38986588-13.53764532-13.53764535a101.12794876 101.12794876 0 0 0-72.42736818-29.2420864C420.34218508 307.38166677 376.20830256 303.59112607 351.02789598 328.77153265s-21.38986586 69.44869995 6.36288644 103.42838289a99.09710884 99.09710884 0 0 0 28.97094728 71.88663482l13.53764535 13.53764534-21.11872676 21.93059919-42.91491511-42.91414259a36.55202866 36.55202866 0 0 0-53.06834219 0L125.08169847 654.35634484a36.55202866 36.55202866 0 0 0 0 53.0683422L233.38440615 815.72662222a36.55202866 36.55202866 0 0 0 53.06834218 1e-8l157.98683168-157.5805092a36.55202866 36.55202866 0 0 0 0-53.06911469l-36.55280111-36.55125619 21.38986586-21.38986584 47.92442323 47.92442318a288.76164438 288.76164438 0 0 1 141.33456232-141.33533478l-47.92442324-47.92442321 21.38986587-21.38986585 36.55280112 36.55202866a36.55202866 36.55202866 0 0 0 53.06834223 0L839.47231966 263.11260092a36.28166199 36.28166199 0 0 0-1.21819497-51.71419143z m0 0" fill="" p-id="1621"></path><path d="M801.56691271 484.05006275a38.31172943 38.31172943 0 0 0-8.79927634-6.3628864 1.21819497 1.21819497 0 0 1-1.21819498-1.218195c-2.57234573-1.21819497-3.7905407-2.57234573-6.36288644-3.7905407h-1.35415077c-61.86761855-34.11563873-157.71569252-10.15342713-228.38258741 60.5142403s-94.76506233 166.6501522-60.51424027 228.38258743c1.21819497 2.57234573 2.57234573 3.79131318 3.79054069 6.36288645a1.21819497 1.21819497 0 0 0 1.21819498 1.2189674c2.57234573 3.7905407 5.00873567 6.36288643 6.3628864 8.79927638 27.07529068 17.7345085 85.82983017-5.00873567 148.91641618-55.50473216l-31.54329301-25.18040657c-37.90617942 30.32432556-67.68977166 46.70545579-77.03055381 39.1243744-11.37162209-11.37239456 27.07529068-67.68977166 84.61163521-126.17317199s114.80077744-95.9832573 126.17239951-84.61086272c7.58108139 7.58108139-6.36288643 34.11486624-32.76148793 67.68899918l25.31558987 31.94961548c47.78846738-59.97273445 69.17833329-116.01974487 51.57900812-141.20015148z m2e-8 0" fill="" p-id="1622"></path><path d="M650.07892326 653.13737735a19.76534843 19.76534843 0 0 1-1.21819493-30.32432552l3.79054067-3.7905407a20.57722092 20.57722092 0 0 1 30.3243256 1.21819493l34.1156387 41.69672015a27.07529068 27.07529068 0 0 1-1.21819493 34.11486625l11.3708496-11.3708496a25.18040657 25.18040657 0 0 1-34.11486625 1.21742245z m0 0" fill="" p-id="1623"></path><path d="M731.71189029 670.0600134a31.00178719 31.00178719 0 0 0-30.3243256 28.5646248 28.7005806 28.7005806 0 0 0 30.3243256 29.10690307 28.56462478 28.56462478 0 1 0 0-57.13002204" fill="" p-id="1624"></path><path d="M806.71160417 670.0600134a94.76506233 94.76506233 0 0 1-31.27215384 70.5317116 102.34537124 102.34537124 0 0 1-74.05188564 29.51245305v40.61370852A145.26105881 145.26105881 0 0 0 849.62651925 670.06078587H806.71160417" fill="" p-id="1625"></path><path d="M882.65914636 669.24736844c0 94.76506233-81.22741699 172.20193863-181.1363983 172.20193864v40.61293603c123.19450375 0 224.0513134-95.44175149 224.05131339-213.35638046h-42.9149151" fill="" p-id="1626"></path></svg>